<svg width="20" height="16" viewBox="0 0 20 16" fill="none" xmlns="http://www.w3.org/2000/svg">
<path d="M4.16667 2.16667H1.66667V1.33333H4.16667V2.16667ZM10.8333 6.33333C9.455 6.33333 8.33333 7.455 8.33333 8.83333C8.33333 10.2117 9.455 11.3333 10.8333 11.3333C12.2117 11.3333 13.3333 10.2117 13.3333 8.83333C13.3333 7.455 12.2117 6.33333 10.8333 6.33333ZM20 3V15.5H0V3H4.94167C5.49917 3 6.01917 2.72167 6.32833 2.2575L7.5 0.5H14.1667L15.3383 2.2575C15.6475 2.72167 16.1675 3 16.725 3H20ZM4.16667 6.33333C4.16667 5.87333 3.79417 5.5 3.33333 5.5C2.8725 5.5 2.5 5.87333 2.5 6.33333C2.5 6.79333 2.8725 7.16667 3.33333 7.16667C3.79417 7.16667 4.16667 6.79333 4.16667 6.33333ZM15 8.83333C15 6.5325 13.1342 4.66667 10.8333 4.66667C8.5325 4.66667 6.66667 6.5325 6.66667 8.83333C6.66667 11.1342 8.5325 13 10.8333 13C13.1342 13 15 11.1342 15 8.83333Z" fill="black"/>
</svg>
