<svg width="24" height="24" viewBox="0 0 24 24" fill="none" xmlns="http://www.w3.org/2000/svg">
<path d="M19.029 13H22L21.734 14H18.742L19.029 13ZM19.892 10H22.704L23 9H20.179L19.892 10ZM19.316 12H23.703L24 11H19.604L19.316 12ZM7.5 18C6.672 18 6 18.672 6 19.5C6 20.329 6.672 21 7.5 21C8.328 21 9 20.329 9 19.5C9 18.672 8.328 18 7.5 18ZM14 19.5C14 20.329 13.328 21 12.5 21C11.672 21 11 20.329 11 19.5C11 18.672 11.672 18 12.5 18C13.328 18 14 18.672 14 19.5ZM22 3L21.257 5H19.328L15.854 17H4.615L0 6H14.812L12.271 15H14.373L17.805 3H22Z" fill="#03AC0E"/>
</svg>
