<svg width="15" height="15" viewBox="0 0 15 15" fill="none" xmlns="http://www.w3.org/2000/svg">
<path d="M7.5 1.25C10.9462 1.25 13.75 4.05375 13.75 7.5C13.75 10.9462 10.9462 13.75 7.5 13.75C4.05375 13.75 1.25 10.9462 1.25 7.5C1.25 4.05375 4.05375 1.25 7.5 1.25ZM7.5 0C3.35813 0 0 3.35813 0 7.5C0 11.6419 3.35813 15 7.5 15C11.6419 15 15 11.6419 15 7.5C15 3.35813 11.6419 0 7.5 0ZM7.5 9.86313C6.1975 9.86313 5.13687 8.80313 5.13687 7.5C5.13687 6.19687 6.19687 5.13687 7.5 5.13687C8.2325 5.13687 8.94125 5.46375 9.46 6.18L10.6206 5.41875C9.82 4.2775 8.6625 3.75 7.5 3.75C5.4325 3.75 3.75 5.4325 3.75 7.5C3.75 9.5675 5.43187 11.25 7.5 11.25C8.67563 11.25 9.8275 10.7131 10.6212 9.58125L9.46063 8.82C8.94313 9.5325 8.23625 9.86313 7.5 9.86313Z" fill="#CDD2DA"/>
</svg>
