<svg width="7" height="7" viewBox="0 0 7 7" fill="none" xmlns="http://www.w3.org/2000/svg">
<g clip-path="url(#clip0_178_158)">
<path d="M6.84249 6.08198L4.25884 3.49308L6.82848 0.918331C7.03804 0.708246 7.03804 0.367692 6.82848 0.157722C6.61881 -0.0522484 6.27905 -0.0522484 6.06938 0.157722L3.49974 2.73247L0.930216 0.157722C0.720547 -0.0522484 0.380784 -0.0522484 0.171116 0.157722C-0.0385524 0.367807 -0.0385524 0.708361 0.171116 0.918331L2.74064 3.49308L0.156763 6.08198C-0.0529053 6.29207 -0.0529053 6.63251 0.156763 6.84259C0.261597 6.94764 0.398926 7.0001 0.53637 7.0001C0.673814 7.0001 0.811143 6.94764 0.915978 6.84259L3.49974 4.25369L6.08339 6.84259C6.18823 6.94764 6.32555 7.0001 6.463 7.0001C6.60044 7.0001 6.73777 6.94764 6.84261 6.84259C7.05204 6.63262 7.05204 6.29207 6.84249 6.08198Z" fill="black"/>
</g>
<defs>
<clipPath id="clip0_178_158">
<rect width="7" height="7" fill="white"/>
</clipPath>
</defs>
</svg>
