<svg width="25" height="24" viewBox="0 0 25 24" fill="none" xmlns="http://www.w3.org/2000/svg">
<g clip-path="url(#clip0_119_31)">
<path d="M12.6028 7C17.5046 7 20.9218 10.012 22.4085 11.636C20.963 13.473 17.5459 17 12.6028 17C8.04247 17 4.42104 13.464 2.8239 11.593C4.3643 9.946 7.79382 7 12.6028 7ZM12.6028 5C4.7935 5 0.20636 11.551 0.20636 11.551C0.20636 11.551 5.19485 19 12.6028 19C20.5813 19 24.9683 11.551 24.9683 11.551C24.9683 11.551 20.541 5 12.6028 5ZM12.5873 10C13.7253 10 14.6508 10.897 14.6508 12C14.6508 13.103 13.7253 14 12.5873 14C11.4493 14 10.5238 13.103 10.5238 12C10.5238 10.897 11.4493 10 12.5873 10ZM12.5873 8C10.3082 8 8.46033 9.792 8.46033 12C8.46033 14.209 10.3082 16 12.5873 16C14.8664 16 16.7143 14.209 16.7143 12C16.7143 9.792 14.8664 8 12.5873 8Z" fill="#C0F8C3"/>
</g>
<defs>
<clipPath id="clip0_119_31">
<rect width="24.7619" height="24" fill="white" transform="translate(0.20636)"/>
</clipPath>
</defs>
</svg>
