<svg width="25" height="24" viewBox="0 0 25 24" fill="none" xmlns="http://www.w3.org/2000/svg">
<path d="M10.3175 16C10.3175 14.896 11.2419 14 12.381 14C13.52 14 14.4445 14.896 14.4445 16C14.4445 16.738 14.0276 17.376 13.4127 17.723V20H11.3492V17.723C10.7343 17.376 10.3175 16.738 10.3175 16ZM21.6667 10V24H3.09525V10H6.19048V6C6.19048 2.687 8.96279 0 12.381 0C15.7991 0 18.5714 2.687 18.5714 6V10H21.6667ZM8.25398 10H16.5079V6C16.5079 3.794 14.656 2 12.381 2C10.106 2 8.25398 3.794 8.25398 6V10ZM19.6032 12H5.15874V22H19.6032V12Z" fill="#C0F8C3"/>
</svg>
