<svg width="18" height="17" viewBox="0 0 18 17" fill="none" xmlns="http://www.w3.org/2000/svg">
<g clip-path="url(#clip0_123_93)">
<path fill-rule="evenodd" clip-rule="evenodd" d="M11.5857 11.73C10.3557 12.8045 8.72745 13.4583 6.94279 13.4583C3.1111 13.4583 0 10.443 0 6.72917C0 3.01537 3.1111 0 6.94279 0C10.7745 0 13.8856 3.01537 13.8856 6.72917C13.8856 8.45892 13.211 10.0371 12.1024 11.2292L17.5397 16.4992L17.023 17L11.5857 11.73ZM6.94279 0.708333C10.3711 0.708333 13.1548 3.40637 13.1548 6.72917C13.1548 10.052 10.3711 12.75 6.94279 12.75C3.51451 12.75 0.73082 10.052 0.73082 6.72917C0.73082 3.40637 3.51451 0.708333 6.94279 0.708333Z" fill="black"/>
</g>
<defs>
<clipPath id="clip0_123_93">
<rect width="17.5397" height="17" fill="white"/>
</clipPath>
</defs>
</svg>
