<svg width="18" height="24" viewBox="0 0 18 24" fill="none" xmlns="http://www.w3.org/2000/svg">
<path d="M3.17599 1.322L6.02 0L10.061 7.89L7.33699 9.231C6.79899 10.49 9.49599 15.52 10.634 15.603C10.724 15.545 13.305 14.275 13.305 14.275L17.415 22.207C17.415 22.207 14.651 23.561 14.561 23.603C6.699 27.194 -4.54201 5.345 3.17599 1.322ZM5.10499 2.596L4.08199 3.1C-1.21201 5.862 8.25899 24.285 13.73 21.786L14.701 21.312L12.43 16.929L11.404 17.429C8.24099 18.976 3.14199 9.21 6.34899 7.491L7.35599 6.994L5.10499 2.596Z" fill="#03AC0E"/>
</svg>
