<svg width="24" height="18" viewBox="0 0 24 18" fill="none" xmlns="http://www.w3.org/2000/svg">
<path d="M12.164 4.165C11.014 4.356 10.462 5.398 10.933 6.493C11.431 7.648 12.854 8.388 14.027 8.096C15.066 7.839 15.546 6.844 15.096 5.801C14.625 4.706 13.312 3.974 12.164 4.165ZM13.648 7.163L13.752 7.392L13.533 7.437L13.436 7.218C13.21 7.259 12.954 7.253 12.717 7.191L12.652 6.804C12.847 6.834 13.09 6.862 13.275 6.824L13.4 6.783C13.621 6.674 13.552 6.396 13.224 6.33C12.979 6.276 12.331 6.316 12.089 5.778C11.953 5.474 12.054 5.157 12.445 5.012L12.337 4.773L12.554 4.728L12.658 4.957C12.817 4.931 13.003 4.921 13.221 4.94L13.308 5.323C13.138 5.302 12.955 5.282 12.796 5.315L12.736 5.331C12.427 5.413 12.526 5.706 12.8 5.777C13.253 5.882 13.794 5.916 14.008 6.389C14.181 6.774 13.98 7.037 13.648 7.163ZM23.96 8.22L20.194 0C14.016 4.004 7.187 -0.318 2.243 4.454L6.008 12.674C11.306 8.182 18.527 12.436 23.96 8.22ZM21.157 6.368C20.782 6.889 20.504 7.485 20.338 8.109C16.745 9.203 12.447 7.908 8.32 9.35C7.653 8.996 6.817 8.774 6.131 8.794L4.996 6.307C5.428 5.782 5.768 4.982 5.914 4.213C9.313 2.987 13.566 4.368 18.112 2.812C18.633 3.158 19.242 3.409 19.842 3.533L21.157 6.368ZM24 12.01C17.143 15.951 11.601 10.586 4.5 18L0 8.03L1.402 6.567L5.209 14.973L5.207 14.98C12.652 9.385 16.402 13.804 23.316 10.417C23.61 11.065 23.881 11.749 24 12.01Z" fill="#03AC0E"/>
</svg>
