<svg width="25" height="24" viewBox="0 0 25 24" fill="none" xmlns="http://www.w3.org/2000/svg">
<g clip-path="url(#clip0_116_23)">
<path d="M12.381 2C15.2255 2 17.5397 4.243 17.5397 7.001C17.5397 9.757 15.2255 12.001 12.381 12.001C9.53643 12.001 7.22222 9.757 7.22222 7.001C7.22222 4.243 9.53643 2 12.381 2ZM12.381 0C8.39222 0 5.15873 3.134 5.15873 7.001C5.15873 10.866 8.39222 14.001 12.381 14.001C16.3697 14.001 19.6032 10.866 19.6032 7.001C19.6032 3.134 16.3697 0 12.381 0V0ZM18.9521 13.353C18.4394 13.851 17.8616 14.284 17.2415 14.655C20.2047 16.529 21.7585 19.738 22.3713 22.001H2.36889C2.95905 19.711 4.49222 16.498 7.49976 14.643C6.87762 14.269 6.30087 13.832 5.78913 13.331C1.39595 16.403 0 21.837 0 24H24.7619C24.7619 21.858 23.2762 16.443 18.9521 13.353Z" fill="#C0F8C3"/>
</g>
<defs>
<clipPath id="clip0_116_23">
<rect width="24.7619" height="24" fill="white"/>
</clipPath>
</defs>
</svg>
